<svg width="150" height="34" viewBox="0 0 150 34" fill="none" xmlns="http://www.w3.org/2000/svg">
<g clip-path="url(#clip0_523_1661)">
<path d="M0 33.2642H4.59792V20.843V20.1966H5.20669H16.7801V16.0547H5.20669H4.59792V15.4105V6.74819V6.104H5.20669H17.7962V1.9599H0V33.2642Z" fill="#E2F4D5"/>
<path d="M23.8555 33.2642H28.2696V0.24646L23.8555 0.897297V33.2642Z" fill="#E2F4D5"/>
<path d="M49.0036 26.6164V27.006L48.6782 27.1875C46.8098 28.2236 44.1865 29.2684 42.5373 29.2684C40.9633 29.2684 40.131 28.3852 40.131 26.716V10.7218H35.7168V27.3513C35.7168 33.0893 38.267 33.7534 40.1841 33.7534C42.6568 33.7534 46.0837 32.7993 48.9128 31.3228L49.5614 30.9841L49.7651 31.719L50.1902 33.262H53.4178V10.7196H49.0036V26.6164Z" fill="#E2F4D5"/>
<path d="M70.5135 21.9211L70.7238 21.5735L77.2343 10.7196H73.0438L68.7934 17.6685L68.2865 18.4986L67.7751 17.6729L63.4782 10.7196H59.2854L65.796 21.5735L66.0041 21.9189L65.796 22.2664L59.1504 33.2642H63.4317L67.7729 26.167L68.2865 25.3302L68.7956 26.1714L73.0902 33.2642H77.4114L70.726 22.2686L70.5135 21.9211Z" fill="#E2F4D5"/>
<path d="M82.9199 0.443481H87.3341V6.05528H82.9199V0.443481Z" fill="#E2F4D5"/>
<path d="M82.9199 10.7196H87.3341V33.262H82.9199V10.7196Z" fill="#E2F4D5"/>
<path d="M103.166 10.2304C99.8032 10.2304 97.3371 11.1225 95.8362 12.8802C94.612 14.3147 93.9922 16.3669 93.9922 18.9813V25.0004C93.9922 27.6148 94.612 29.6669 95.8362 31.1014C97.3371 32.8614 99.8032 33.7513 103.166 33.7513C106.529 33.7513 108.995 32.8591 110.496 31.1014C111.72 29.6669 112.34 27.6148 112.34 25.0004V18.9813C112.34 16.3669 111.72 14.3147 110.496 12.8802C108.997 11.1225 106.531 10.2304 103.166 10.2304ZM107.928 25.1974C107.928 28.3963 106.371 29.9525 103.166 29.9525C99.9626 29.9525 98.4041 28.3963 98.4041 25.1974V18.7865C98.4041 15.5854 99.9604 14.0314 103.166 14.0314C106.369 14.0314 107.928 15.5876 107.928 18.7865V25.1974Z" fill="#E2F4D5"/>
<path d="M145.526 10.2304C143.027 10.2304 139.503 11.2244 136.758 12.7054L136.207 13.0042L135.936 12.4131C135.257 10.9255 134.081 10.2326 132.24 10.2326C129.767 10.2326 126.34 11.1867 123.511 12.6633L122.862 13.002L122.659 12.267L122.233 10.7241H119.006V33.2665H123.42V17.3697V16.9801L123.745 16.7985C125.612 15.7625 128.235 14.7176 129.886 14.7176C131.463 14.7176 132.295 15.6009 132.295 17.2701V33.2643H136.709V17.3675V16.9956L137.012 16.8096C138.861 15.674 141.683 14.7154 143.178 14.7154C144.754 14.7154 145.586 15.5987 145.586 17.2679V33.262H150V16.6325C149.996 10.8945 147.446 10.2304 145.526 10.2304Z" fill="#E2F4D5"/>
</g>
<defs>
<clipPath id="clip0_523_1661">
<rect width="150" height="33.507" fill="white" transform="translate(0 0.246521)"/>
</clipPath>
</defs>
</svg>
